<svg width="40" height="40" viewBox="0 0 40 40" fill="none" xmlns="http://www.w3.org/2000/svg">
<path d="M20.0392 4.16667C18.7433 4.17083 17.845 4.285 16.7592 4.4725C13.5525 5.03083 12.9683 6.20333 12.9683 8.36417V11.6667H20.4683V13.3333H12.6833H9.05833C6.86167 13.3333 4.93917 14.3683 4.33 16.8492C3.64167 19.6967 3.61083 21.48 4.33 24.4533C4.87583 26.6708 6.07833 28.3333 8.27583 28.3333H11.3025V24.08C11.3025 21.6083 13.5408 19.1667 16.1058 19.1667H22.1358C24.2383 19.1667 26.3025 17.615 26.3025 15.5192V8.36417C26.3025 6.33167 24.8367 4.81167 22.7875 4.47083C22.8383 4.46583 21.3242 4.16167 20.0392 4.16667ZM15.8858 7.5C16.57 7.5 17.1358 8.06417 17.1358 8.75167C17.1358 9.44583 16.57 10 15.8858 10C15.1883 10 14.6358 9.44667 14.6358 8.75167C14.6358 8.06667 15.1883 7.5 15.8858 7.5Z" fill="#0277BD"/>
<path d="M19.2317 35.8333C20.5275 35.8292 21.4258 35.715 22.5117 35.5275C25.7183 34.9692 26.3025 33.7967 26.3025 31.6358V28.3333H18.8025V26.6667H26.5883H30.2133C32.41 26.6667 34.3325 25.6317 34.9417 23.1508C35.63 20.3033 35.6608 18.52 34.9417 15.5467C34.395 13.3292 33.1925 11.6667 30.995 11.6667H27.9683V15.92C27.9683 18.3917 25.73 20.8333 23.165 20.8333H17.135C15.0325 20.8333 12.9683 22.385 12.9683 24.4808V31.6358C12.9683 33.6683 14.4342 35.1883 16.4833 35.5292C16.4325 35.5342 17.9467 35.8383 19.2317 35.8333ZM23.3858 32.5C22.7017 32.5 22.1358 31.9358 22.1358 31.2483C22.1358 30.5542 22.7017 30 23.3858 30C24.0833 30 24.6358 30.5533 24.6358 31.2483C24.6358 31.9333 24.0825 32.5 23.3858 32.5Z" fill="#FFC107"/>
</svg>
