<svg width="40" height="40" viewBox="0 0 40 40" fill="none" xmlns="http://www.w3.org/2000/svg">
<path d="M19.2367 9.3975C17.8758 7.35667 17.5817 4.62917 17.5175 3.50833C14.0608 4.25583 10.6267 5.59667 10.825 6.58417C10.85 6.70833 11.0067 6.8575 11.2667 7.0025L10.86 7.73C10.3633 7.45167 10.0842 7.13083 10.0083 6.7475C9.78417 5.63 11.05 4.61917 13.8767 3.65667C15.8067 2.99917 17.7533 2.60667 17.8358 2.59083L18.3333 2.49083V3C18.3333 3.035 18.355 6.57333 19.93 8.93583L19.2367 9.3975Z" fill="#CFD8DC"/>
<path d="M20.6258 35.8333H20.4167C13.59 35.8333 5.9925 33.6892 5.095 30.1008C4.5475 27.9092 6.33833 25.4875 10.2733 23.1L10.7067 23.8117C7.16583 25.9608 5.46 28.1217 5.90417 29.8992C6.68333 33.0142 13.8833 34.9558 20.1983 34.9992C20.9492 33.8767 24.9833 27.2825 22.6808 18.4383L23.4867 18.2283C26.1108 28.305 20.805 35.5925 20.7517 35.665L20.6258 35.8333Z" fill="#CFD8DC"/>
<path d="M8.27583 32.755C7.82667 32.755 7.60417 32.7058 7.5675 32.6967C7.42083 32.6608 7.30583 32.5483 7.26583 32.4033C7.225 32.2583 7.26667 32.1025 7.37333 31.9967C7.43333 31.9367 13.3708 25.99 14.1725 21.1817L14.9942 21.3183C14.305 25.455 10.2317 30.1708 8.61417 31.9075C10.23 31.815 14.31 31.0583 22.1425 26.6742C16.03 26.0042 15.0633 21.1108 15.0533 21.0583L15.8725 20.9075C15.9117 21.1125 16.8942 25.9167 23.5758 25.9167C23.5783 25.9167 23.58 25.9167 23.5825 25.9167C23.7717 25.9167 23.9358 26.0433 23.9842 26.225C24.0342 26.4067 23.9542 26.5992 23.7917 26.6942C14.4292 32.1183 9.88917 32.7542 8.27583 32.755Z" fill="#CFD8DC"/>
<path d="M12.1033 34.75C11.9308 34.75 11.7742 34.6433 11.7133 34.4792C11.6475 34.3033 11.7075 34.1042 11.8608 33.9942C11.8892 33.9733 13.3717 32.8792 14.9492 30.4708C14.3425 30.2025 13.7283 29.8892 13.1192 29.5233C12.3792 29.0792 11.82 28.6025 11.4025 28.1142C9.26083 28.6792 7.28417 28.9025 5.54833 28.755L5.61833 27.925C7.18167 28.0575 8.95917 27.8725 10.8858 27.3917C9.575 25.1517 10.7783 22.9283 10.795 22.8983L11.5233 23.3042C11.4675 23.4058 10.4692 25.2792 11.7308 27.165C13.565 26.6383 15.5217 25.8592 17.5467 24.8467C18.0125 23.3175 18.3767 21.5783 18.5675 19.6167C18.5808 19.4825 18.6575 19.3633 18.7742 19.2958C18.8908 19.2283 19.0333 19.2225 19.1558 19.2783C19.1825 19.2908 21.8758 20.5208 23.8258 21.3233C23.9675 21.3817 24.0658 21.5133 24.0817 21.6658C24.0983 21.8183 24.0292 21.9667 23.9017 22.0533C21.9942 23.3533 20.0992 24.4808 18.2533 25.4217C17.6683 27.2758 16.9442 28.8192 16.2042 30.0808C19.2892 31.2333 21.9667 31.2508 22.0008 31.2508C22.1908 31.2508 22.3567 31.3792 22.4042 31.5633C22.4517 31.7475 22.3692 31.94 22.2033 32.0325C18.42 34.1342 12.3975 34.7258 12.1433 34.75C12.13 34.7492 12.1167 34.75 12.1033 34.75ZM15.7575 30.8058C14.8908 32.1508 14.0392 33.1167 13.4025 33.7475C15.0675 33.5025 17.9867 32.9658 20.4092 31.965C19.2492 31.8225 17.57 31.5058 15.7575 30.8058ZM12.3058 27.8592C12.6333 28.1858 13.0417 28.505 13.5475 28.8092C14.1608 29.1775 14.7833 29.49 15.3975 29.755C16.0258 28.7017 16.6483 27.4375 17.1825 25.9483C15.4983 26.75 13.8633 27.39 12.3058 27.8592ZM19.335 20.2742C19.1642 21.7475 18.9008 23.0917 18.5742 24.3158C19.9575 23.5783 21.3692 22.7358 22.7925 21.7942C21.5017 21.2475 20.0825 20.6117 19.335 20.2742Z" fill="#CFD8DC"/>
<path d="M14.9367 8.83333C14.8392 8.83333 14.7425 8.79833 14.6658 8.73333C13.3242 7.585 11.745 5.24833 11.6783 5.14917C11.5708 4.99 11.5875 4.7775 11.7167 4.63583C11.845 4.49333 12.0567 4.46 12.2233 4.55083C12.2325 4.55333 13.005 4.87167 18.2375 5.74333C18.3883 5.76833 18.5125 5.87333 18.5625 6.01667C18.6133 6.16 18.5808 6.32 18.4792 6.43333C17.0142 8.06083 15.1633 8.7775 15.085 8.80667C15.0367 8.82417 14.9858 8.83333 14.9367 8.83333ZM13.0392 5.62167C13.565 6.32917 14.3225 7.285 15.0158 7.92917C15.4417 7.735 16.3967 7.2475 17.3025 6.43083C15.15 6.06333 13.8367 5.80167 13.0392 5.62167Z" fill="#CFD8DC"/>
<path d="M18.2025 20.3333C18.1458 20.3333 18.0883 20.3217 18.035 20.2983C17.8692 20.225 17.7692 20.0533 17.7883 19.8733C18.0317 17.5825 14.5167 16.6633 14.4808 16.655C14.3358 16.6183 14.2208 16.5058 14.1817 16.3617C14.1425 16.2175 14.1833 16.0625 14.2892 15.9567C14.4617 15.7842 18.5717 11.7083 23.7283 9.47C23.8725 9.4075 24.0358 9.43083 24.1575 9.52833C24.2783 9.62667 24.3342 9.78417 24.3025 9.93583C23.3142 14.7225 18.7108 19.9725 18.5158 20.1933C18.4333 20.2842 18.3183 20.3333 18.2025 20.3333ZM15.3792 16.0708C16.3658 16.4417 18.0942 17.3 18.5317 18.8675C19.7392 17.3608 22.3167 13.89 23.2792 10.5892C19.6233 12.3475 16.545 14.9992 15.3792 16.0708Z" fill="#B71C1C"/>
<path d="M10.8992 23.6333L10.5033 22.9C12.0725 22.0542 13.87 20.4975 15.3425 18.6883C14.0892 19.5467 13.3717 20.1342 13.3492 20.1533L12.8167 19.5117C12.8492 19.485 14.2867 18.3058 16.6758 16.8283C17.3317 15.7733 17.8358 14.6883 18.095 13.6483C18.1392 13.4717 18.1775 13.3008 18.2083 13.1358C16.6042 12.5633 15.1242 12.2242 14.1075 12.0783C13.9533 12.0567 13.825 11.9508 13.7733 11.805C13.7217 11.6592 13.7558 11.4958 13.86 11.3825C13.9308 11.3058 15.6233 9.4925 17.7383 8.49667C17.9025 8.41917 18.0992 8.4575 18.2225 8.59167C18.2783 8.6525 19.4225 9.9375 19.1317 12.5958C20.0942 12.9708 21.0858 13.4267 22.0408 13.9692C24.34 12.9358 26.9508 12.0058 29.7317 11.4442C29.875 11.4158 30.0342 11.4675 30.1325 11.5842C30.23 11.7008 30.2567 11.8617 30.2017 12.0033C29.1183 14.78 26.2133 17.7458 26.09 17.8708C26.0058 17.9558 25.8908 17.9983 25.7708 17.9942C25.6517 17.9875 25.5417 17.9308 25.4667 17.8375C24.5333 16.6642 23.3133 15.6925 21.9975 14.9017C20.185 15.7383 18.58 16.6333 17.2608 17.4425C15.5775 20.07 13.0367 22.4825 10.8992 23.6333ZM22.91 14.4967C23.985 15.19 24.9858 16.005 25.8133 16.9533C26.5033 16.205 28.1592 14.3133 29.0983 12.435C26.89 12.9433 24.8 13.6792 22.91 14.4967ZM18.9992 13.435C18.9717 13.5708 18.94 13.71 18.905 13.8517C18.73 14.5508 18.4517 15.2692 18.095 15.9858C19.0083 15.4642 20.0192 14.9258 21.11 14.4042C20.4117 14.0342 19.6992 13.7125 18.9992 13.435ZM15.04 11.3933C15.9658 11.575 17.1067 11.8717 18.3242 12.2983C18.4508 10.7625 18.0358 9.82167 17.785 9.405C16.6383 10.0033 15.6342 10.845 15.04 11.3933Z" fill="#B71C1C"/>
<path d="M15.0417 15.4167C15.0417 19.0667 12 21.9667 9.80833 24.0833C9.44167 24.4417 8.2 24.5 8.2 24.5C8.50833 24.1833 8.85833 23.85 9.23333 23.4917C11.3167 21.475 14.2083 18.7167 14.2083 15.4167C14.2083 11.5083 12.6333 9.96667 11.3917 8.73333C10.8417 8.175 10.375 7.64167 10.0917 6.99167L10.35 6.88334C10.6333 7.00834 10.9583 7.15 11.2083 7.25833C11.4083 7.55 11.675 7.83334 11.9833 8.14167C13.2583 9.41667 15.0417 11.1667 15.0417 15.4167Z" fill="#B71C1C"/>
<path d="M35.7792 16.495C35.7792 16.495 35.275 16.5667 35.1333 16.5833C27.8333 17.3917 20.3 19.4917 15.9917 21.2167C14.4333 21.8417 12.8167 22.6 11.3417 23.45C11.3333 23.4583 11.325 23.4583 11.3083 23.4667C10.4417 23.9667 8.33333 25 6.625 25.9083C9.125 23.25 13.8083 21.2 15.675 20.45C19.9 18.7583 27.1583 16.7167 34.3 15.8417C33.4583 14.8583 31.4 12.775 27.35 11.225C24.9833 10.3083 21.3833 9.79167 18.2083 9.33333C13.1583 8.60833 10.2833 8.125 10.0083 6.75C9.95 6.475 9.99167 6.2 10.1167 5.93333C10.3917 6.38333 10.7833 6.7 11.0417 6.88333C11.1667 6.96667 11.2583 7.01667 11.2917 7.03333L11.3 7.04167C12.4833 7.66667 15.675 8.125 18.3333 8.50833C21.55 8.975 25.1917 9.5 27.65 10.4417C33.375 12.65 35.35 15.8083 35.4333 15.9417C35.5083 16.0667 35.7792 16.495 35.7792 16.495Z" fill="#B71C1C"/>
</svg>
