<svg width="40" height="40" viewBox="0 0 40 40" fill="none" xmlns="http://www.w3.org/2000/svg">
<path d="M22.5 36.6667H30.8333C31.7542 36.6667 32.5 35.9208 32.5 35V5C32.5 4.07917 31.7542 3.33334 30.8333 3.33334H22.5C21.5792 3.33334 20.8333 4.07917 20.8333 5V35C20.8333 35.9208 21.5792 36.6667 22.5 36.6667Z" fill="url(#paint0_linear_70_4)"/>
<path d="M15.8333 36.6667H24.1667C25.0875 36.6667 25.8333 35.9208 25.8333 35V13.3333C25.8333 12.4125 25.0875 11.6667 24.1667 11.6667H15.8333C14.9125 11.6667 14.1667 12.4125 14.1667 13.3333V35C14.1667 35.9208 14.9125 36.6667 15.8333 36.6667Z" fill="url(#paint1_linear_70_4)"/>
<path d="M9.16667 36.6667H17.5C18.4208 36.6667 19.1667 35.9208 19.1667 35V21.6667C19.1667 20.7458 18.4208 20 17.5 20H9.16667C8.24583 20 7.5 20.7458 7.5 21.6667V35C7.5 35.9208 8.24583 36.6667 9.16667 36.6667Z" fill="url(#paint2_linear_70_4)"/>
<defs>
<linearGradient id="paint0_linear_70_4" x1="26.6667" y1="3.28917" x2="26.6667" y2="37.2925" gradientUnits="userSpaceOnUse">
<stop offset="0.006" stop-color="#EBB112"/>
<stop offset="1" stop-color="#BB5C17"/>
</linearGradient>
<linearGradient id="paint1_linear_70_4" x1="18.4075" y1="10.95" x2="21.6742" y2="38.06" gradientUnits="userSpaceOnUse">
<stop stop-color="#FED35D"/>
<stop offset="0.281" stop-color="#F6C648"/>
<stop offset="0.857" stop-color="#E3A513"/>
<stop offset="0.989" stop-color="#DE9D06"/>
</linearGradient>
<linearGradient id="paint2_linear_70_4" x1="8.16917" y1="18.9842" x2="17.7792" y2="36.3817" gradientUnits="userSpaceOnUse">
<stop stop-color="#FFD869"/>
<stop offset="0.983" stop-color="#FFDF26"/>
</linearGradient>
</defs>
</svg>
