<svg width="40" height="40" viewBox="0 0 40 40" fill="none" xmlns="http://www.w3.org/2000/svg">
<path d="M19.9998 36.6C19.5527 36.6 19.1353 36.4795 18.7476 36.2686L14.7825 33.8882C14.1861 33.5566 14.4843 33.4361 14.6634 33.3759C15.4682 33.1047 15.6173 33.0442 16.4521 32.5624C16.5416 32.5019 16.661 32.5322 16.7503 32.5924L19.7913 34.4305C19.9105 34.4907 20.0596 34.4907 20.1489 34.4305L32.0446 27.4697C32.1638 27.4095 32.2236 27.2888 32.2236 27.1383V13.2469C32.2236 13.096 32.1638 12.9758 32.0446 12.9153L20.1489 5.98474C20.0297 5.92425 19.8806 5.92425 19.7913 5.98474L7.89558 12.9153C7.7764 12.9755 7.71655 13.1262 7.71655 13.2467V27.1381C7.71655 27.2588 7.7764 27.4092 7.89558 27.4697L11.1453 29.368C12.9044 30.272 14.0074 29.2173 14.0074 28.1627V14.452C14.0074 14.2713 14.1565 14.0904 14.3652 14.0904H15.8856C16.0646 14.0904 16.2434 14.2411 16.2434 14.452V28.1627C16.2434 30.5431 14.9613 31.9294 12.7253 31.9294C12.0397 31.9294 11.5031 31.9294 9.98246 31.1759L6.85214 29.368C6.07697 28.9162 5.60001 28.0722 5.60001 27.1683V13.2769C5.60001 12.373 6.07697 11.529 6.85214 11.0772L18.7476 4.11639C19.4931 3.69454 20.5069 3.69454 21.2521 4.11639L33.1476 11.0772C33.9228 11.529 34.4 12.373 34.4 13.2769V27.1683C34.4 28.0722 33.9228 28.9162 33.1476 29.368L21.2521 36.3288C20.8644 36.5098 20.4171 36.6 19.9998 36.6ZM23.6669 27.0479C18.4497 27.0479 17.3763 24.6372 17.3763 22.5882C17.3763 22.4072 17.5254 22.2265 17.7341 22.2265H19.2844C19.4632 22.2265 19.6123 22.347 19.6123 22.5279C19.8509 24.1249 20.5366 24.9084 23.6968 24.9084C26.2011 24.9084 27.2747 24.3358 27.2747 22.9798C27.2747 22.1963 26.9762 21.624 23.0707 21.2321C19.821 20.9005 17.7937 20.1775 17.7937 17.5559C17.7937 15.115 19.8212 13.6685 23.2198 13.6685C27.0358 13.6685 28.9143 14.9946 29.1529 17.8871C29.1529 17.9778 29.123 18.068 29.0634 18.1585C29.0035 18.2187 28.9143 18.2789 28.8248 18.2789H27.2744C27.1253 18.2789 26.9762 18.1585 26.9466 18.0078C26.5888 16.3506 25.6645 15.808 23.2198 15.808C20.477 15.808 20.1489 16.7725 20.1489 17.4954C20.1489 18.3694 20.5366 18.6405 24.2334 19.1226C27.9005 19.605 29.6298 20.298 29.6298 22.8893C29.5999 25.5411 27.4534 27.0479 23.6669 27.0479Z" fill="#539E43"/>
</svg>
